<svg xmlns="http://www.w3.org/2000/svg" viewBox="0 0 120 80">
  <rect width="120" height="80" rx="8" fill="#1F70C1"/>
  <!-- IBM horizontal stripe style text -->
  <!-- I bar -->
  <rect x="14" y="22" width="18" height="7" fill="white"/>
  <rect x="14" y="33" width="18" height="7" fill="white"/>
  <rect x="14" y="44" width="18" height="7" fill="white"/>
  <rect x="14" y="55" width="18" height="7" fill="white"/>
  <!-- gaps in I to make stripe effect -->
  <rect x="14" y="29" width="18" height="4" fill="#1F70C1"/>
  <rect x="14" y="40" width="18" height="4" fill="#1F70C1"/>
  <rect x="14" y="51" width="18" height="4" fill="#1F70C1"/>
  <!-- B shape -->
  <rect x="38" y="22" width="5" height="40" fill="white"/>
  <path d="M43 22 L56 22 C62 22 66 25 66 31 C66 37 62 40 56 40 L43 40 Z" fill="white"/>
  <path d="M43 40 L58 40 C65 40 69 43 69 49 C69 55 65 62 58 62 L43 62 Z" fill="white"/>
  <rect x="43" y="29" width="22" height="4" fill="#1F70C1"/>
  <rect x="43" y="47" width="24" height="4" fill="#1F70C1"/>
  <!-- M shape -->
  <rect x="75" y="22" width="5" height="40" fill="white"/>
  <rect x="109" y="22" width="5" height="40" fill="white"/>
  <polygon points="80,22 92,45 104,22 104,29 92,52 80,29" fill="white"/>
  <!-- stripes on M -->
  <rect x="75" y="29" width="39" height="4" fill="#1F70C1"/>
  <rect x="75" y="40" width="39" height="4" fill="#1F70C1"/>
  <rect x="75" y="51" width="39" height="4" fill="#1F70C1"/>
</svg>
